<svg width="30" height="30" viewBox="0 0 30 30" fill="none" xmlns="http://www.w3.org/2000/svg">
<path fill-rule="evenodd" clip-rule="evenodd" d="M10.3662 15.8838C10.1319 15.6494 10.0003 15.3315 10.0003 15C10.0003 14.6686 10.1319 14.3507 10.3662 14.1163L17.4375 7.04502C17.5528 6.92563 17.6907 6.8304 17.8432 6.76489C17.9957 6.69938 18.1598 6.6649 18.3257 6.66346C18.4917 6.66201 18.6563 6.69364 18.8099 6.75649C18.9636 6.81934 19.1031 6.91216 19.2205 7.02953C19.3379 7.14689 19.4307 7.28646 19.4935 7.44008C19.5564 7.5937 19.588 7.7583 19.5866 7.92427C19.5851 8.09024 19.5506 8.25427 19.4851 8.40677C19.4196 8.55928 19.3244 8.69721 19.205 8.81252L13.0175 15L19.205 21.1875C19.4327 21.4233 19.5587 21.739 19.5558 22.0668C19.553 22.3945 19.4215 22.708 19.1898 22.9398C18.958 23.1716 18.6445 23.303 18.3168 23.3059C17.989 23.3087 17.6733 23.1827 17.4375 22.955L10.3662 15.8838Z" fill="#19262E"/>
</svg>
